<mxfile host="Electron" modified="2023-06-12T12:39:54.079Z" agent="Mozilla/5.0 (Macintosh; Intel Mac OS X 10_15_7) AppleWebKit/537.36 (KHTML, like Gecko) draw.io/21.3.7 Chrome/112.0.5615.204 Electron/24.5.0 Safari/537.36" etag="QN2iTm75TA2RUcdxIGMZ" version="21.3.7" type="device" pages="2">
  <diagram name="privatelink_nlb_alb" id="efuuoVPvYOZnHWS6yLMu">
    <mxGraphModel dx="1165" dy="925" grid="1" gridSize="10" guides="1" tooltips="1" connect="1" arrows="1" fold="1" page="1" pageScale="1" pageWidth="1100" pageHeight="850" math="0" shadow="0">
      <root>
        <mxCell id="0" />
        <mxCell id="1" parent="0" />
        <mxCell id="N_pHRzwYdlKgNelcqohJ-1" value="AWS Cloud" style="points=[[0,0],[0.25,0],[0.5,0],[0.75,0],[1,0],[1,0.25],[1,0.5],[1,0.75],[1,1],[0.75,1],[0.5,1],[0.25,1],[0,1],[0,0.75],[0,0.5],[0,0.25]];outlineConnect=0;gradientColor=none;html=1;whiteSpace=wrap;fontSize=12;fontStyle=0;container=1;pointerEvents=0;collapsible=0;recursiveResize=0;shape=mxgraph.aws4.group;grIcon=mxgraph.aws4.group_aws_cloud_alt;strokeColor=#232F3E;fillColor=none;verticalAlign=top;align=left;spacingLeft=30;fontColor=#232F3E;dashed=0;" parent="1" vertex="1">
          <mxGeometry x="80" y="70" width="840" height="410" as="geometry" />
        </mxCell>
        <mxCell id="N_pHRzwYdlKgNelcqohJ-9" value="Region" style="points=[[0,0],[0.25,0],[0.5,0],[0.75,0],[1,0],[1,0.25],[1,0.5],[1,0.75],[1,1],[0.75,1],[0.5,1],[0.25,1],[0,1],[0,0.75],[0,0.5],[0,0.25]];outlineConnect=0;gradientColor=none;html=1;whiteSpace=wrap;fontSize=12;fontStyle=0;container=1;pointerEvents=0;collapsible=0;recursiveResize=0;shape=mxgraph.aws4.group;grIcon=mxgraph.aws4.group_region;strokeColor=#147EBA;fillColor=none;verticalAlign=top;align=left;spacingLeft=30;fontColor=#147EBA;dashed=1;" parent="N_pHRzwYdlKgNelcqohJ-1" vertex="1">
          <mxGeometry x="30" y="40" width="780" height="340" as="geometry" />
        </mxCell>
        <mxCell id="N_pHRzwYdlKgNelcqohJ-11" value="Provider Account" style="points=[[0,0],[0.25,0],[0.5,0],[0.75,0],[1,0],[1,0.25],[1,0.5],[1,0.75],[1,1],[0.75,1],[0.5,1],[0.25,1],[0,1],[0,0.75],[0,0.5],[0,0.25]];outlineConnect=0;gradientColor=none;html=1;whiteSpace=wrap;fontSize=12;fontStyle=0;container=1;pointerEvents=0;collapsible=0;recursiveResize=0;shape=mxgraph.aws4.group;grIcon=mxgraph.aws4.group_aws_cloud;strokeColor=#232F3E;fillColor=none;verticalAlign=top;align=left;spacingLeft=30;fontColor=#232F3E;dashed=0;" parent="N_pHRzwYdlKgNelcqohJ-9" vertex="1">
          <mxGeometry x="420" y="40" width="330" height="270" as="geometry" />
        </mxCell>
        <mxCell id="N_pHRzwYdlKgNelcqohJ-2" value="Provider VPC" style="points=[[0,0],[0.25,0],[0.5,0],[0.75,0],[1,0],[1,0.25],[1,0.5],[1,0.75],[1,1],[0.75,1],[0.5,1],[0.25,1],[0,1],[0,0.75],[0,0.5],[0,0.25]];outlineConnect=0;gradientColor=none;html=1;whiteSpace=wrap;fontSize=12;fontStyle=0;container=1;pointerEvents=0;collapsible=0;recursiveResize=0;shape=mxgraph.aws4.group;grIcon=mxgraph.aws4.group_vpc;strokeColor=#248814;fillColor=none;verticalAlign=top;align=left;spacingLeft=30;fontColor=#AAB7B8;dashed=0;" parent="N_pHRzwYdlKgNelcqohJ-11" vertex="1">
          <mxGeometry x="30" y="40" width="270" height="200" as="geometry" />
        </mxCell>
        <mxCell id="N_pHRzwYdlKgNelcqohJ-17" value="Network&lt;br&gt;Load Balancer" style="sketch=0;outlineConnect=0;fontColor=#232F3E;gradientColor=none;fillColor=#4D27AA;strokeColor=none;dashed=0;verticalLabelPosition=bottom;verticalAlign=top;align=center;html=1;fontSize=12;fontStyle=0;aspect=fixed;pointerEvents=1;shape=mxgraph.aws4.network_load_balancer;" parent="N_pHRzwYdlKgNelcqohJ-2" vertex="1">
          <mxGeometry x="30" y="41" width="78" height="78" as="geometry" />
        </mxCell>
        <mxCell id="N_pHRzwYdlKgNelcqohJ-18" value="Application&lt;br&gt;Load Balancer" style="sketch=0;outlineConnect=0;fontColor=#232F3E;gradientColor=none;fillColor=#4D27AA;strokeColor=none;dashed=0;verticalLabelPosition=bottom;verticalAlign=top;align=center;html=1;fontSize=12;fontStyle=0;aspect=fixed;pointerEvents=1;shape=mxgraph.aws4.application_load_balancer;" parent="N_pHRzwYdlKgNelcqohJ-2" vertex="1">
          <mxGeometry x="160" y="41" width="78" height="78" as="geometry" />
        </mxCell>
        <mxCell id="N_pHRzwYdlKgNelcqohJ-19" value="" style="edgeStyle=orthogonalEdgeStyle;rounded=0;orthogonalLoop=1;jettySize=auto;html=1;" parent="N_pHRzwYdlKgNelcqohJ-2" source="N_pHRzwYdlKgNelcqohJ-17" target="N_pHRzwYdlKgNelcqohJ-18" edge="1">
          <mxGeometry relative="1" as="geometry" />
        </mxCell>
        <mxCell id="N_pHRzwYdlKgNelcqohJ-10" value="Consumer Account" style="points=[[0,0],[0.25,0],[0.5,0],[0.75,0],[1,0],[1,0.25],[1,0.5],[1,0.75],[1,1],[0.75,1],[0.5,1],[0.25,1],[0,1],[0,0.75],[0,0.5],[0,0.25]];outlineConnect=0;gradientColor=none;html=1;whiteSpace=wrap;fontSize=12;fontStyle=0;container=1;pointerEvents=0;collapsible=0;recursiveResize=0;shape=mxgraph.aws4.group;grIcon=mxgraph.aws4.group_aws_cloud;strokeColor=#232F3E;fillColor=none;verticalAlign=top;align=left;spacingLeft=30;fontColor=#232F3E;dashed=0;" parent="N_pHRzwYdlKgNelcqohJ-9" vertex="1">
          <mxGeometry x="30" y="40" width="270" height="270" as="geometry" />
        </mxCell>
        <mxCell id="N_pHRzwYdlKgNelcqohJ-12" value="Consumer VPC" style="points=[[0,0],[0.25,0],[0.5,0],[0.75,0],[1,0],[1,0.25],[1,0.5],[1,0.75],[1,1],[0.75,1],[0.5,1],[0.25,1],[0,1],[0,0.75],[0,0.5],[0,0.25]];outlineConnect=0;gradientColor=none;html=1;whiteSpace=wrap;fontSize=12;fontStyle=0;container=1;pointerEvents=0;collapsible=0;recursiveResize=0;shape=mxgraph.aws4.group;grIcon=mxgraph.aws4.group_vpc;strokeColor=#248814;fillColor=none;verticalAlign=top;align=left;spacingLeft=30;fontColor=#AAB7B8;dashed=0;" parent="N_pHRzwYdlKgNelcqohJ-10" vertex="1">
          <mxGeometry x="30" y="40" width="210" height="200" as="geometry" />
        </mxCell>
        <mxCell id="N_pHRzwYdlKgNelcqohJ-5" value="Consumer" style="sketch=0;outlineConnect=0;fontColor=#232F3E;gradientColor=none;fillColor=#232F3D;strokeColor=none;dashed=0;verticalLabelPosition=bottom;verticalAlign=top;align=center;html=1;fontSize=12;fontStyle=0;aspect=fixed;pointerEvents=1;shape=mxgraph.aws4.traditional_server;" parent="N_pHRzwYdlKgNelcqohJ-12" vertex="1">
          <mxGeometry x="30" y="41" width="45" height="78" as="geometry" />
        </mxCell>
        <mxCell id="N_pHRzwYdlKgNelcqohJ-7" value="" style="edgeStyle=orthogonalEdgeStyle;rounded=0;orthogonalLoop=1;jettySize=auto;html=1;" parent="N_pHRzwYdlKgNelcqohJ-12" source="N_pHRzwYdlKgNelcqohJ-5" target="eo9gmvLQg6m71YF8AFIb-1" edge="1">
          <mxGeometry relative="1" as="geometry">
            <mxPoint x="110.0008863032067" y="80" as="targetPoint" />
          </mxGeometry>
        </mxCell>
        <mxCell id="eo9gmvLQg6m71YF8AFIb-1" value="AWS PrivateLink&lt;br&gt;Endpoint" style="sketch=0;outlineConnect=0;fontColor=#232F3E;gradientColor=none;fillColor=#4D27AA;strokeColor=none;dashed=0;verticalLabelPosition=bottom;verticalAlign=top;align=center;html=1;fontSize=12;fontStyle=0;aspect=fixed;pointerEvents=1;shape=mxgraph.aws4.endpoints;" vertex="1" parent="N_pHRzwYdlKgNelcqohJ-12">
          <mxGeometry x="110" y="41" width="78" height="78" as="geometry" />
        </mxCell>
        <mxCell id="N_pHRzwYdlKgNelcqohJ-16" value="AWS&lt;br&gt;PrivateLink" style="sketch=0;points=[[0,0,0],[0.25,0,0],[0.5,0,0],[0.75,0,0],[1,0,0],[0,1,0],[0.25,1,0],[0.5,1,0],[0.75,1,0],[1,1,0],[0,0.25,0],[0,0.5,0],[0,0.75,0],[1,0.25,0],[1,0.5,0],[1,0.75,0]];outlineConnect=0;fontColor=#232F3E;gradientColor=#945DF2;gradientDirection=north;fillColor=#5A30B5;strokeColor=#ffffff;dashed=0;verticalLabelPosition=bottom;verticalAlign=top;align=center;html=1;fontSize=12;fontStyle=0;aspect=fixed;shape=mxgraph.aws4.resourceIcon;resIcon=mxgraph.aws4.vpc_privatelink;" parent="N_pHRzwYdlKgNelcqohJ-9" vertex="1">
          <mxGeometry x="320" y="180" width="78" height="78" as="geometry" />
        </mxCell>
        <mxCell id="N_pHRzwYdlKgNelcqohJ-21" value="" style="edgeStyle=orthogonalEdgeStyle;rounded=0;orthogonalLoop=1;jettySize=auto;html=1;" parent="N_pHRzwYdlKgNelcqohJ-9" source="eo9gmvLQg6m71YF8AFIb-1" target="N_pHRzwYdlKgNelcqohJ-17" edge="1">
          <mxGeometry relative="1" as="geometry">
            <mxPoint x="328.0008863032067" y="160" as="targetPoint" />
            <mxPoint x="247.99911369679353" y="160" as="sourcePoint" />
          </mxGeometry>
        </mxCell>
      </root>
    </mxGraphModel>
  </diagram>
  <diagram name="privatelink_nlb_apigw" id="A1_grDAWJ4k3fTgpYiYK">
    <mxGraphModel dx="1165" dy="925" grid="1" gridSize="10" guides="1" tooltips="1" connect="1" arrows="1" fold="1" page="1" pageScale="1" pageWidth="1100" pageHeight="850" math="0" shadow="0">
      <root>
        <mxCell id="fWKMCGJAan4TwiToc_Mq-0" />
        <mxCell id="fWKMCGJAan4TwiToc_Mq-1" parent="fWKMCGJAan4TwiToc_Mq-0" />
        <mxCell id="fWKMCGJAan4TwiToc_Mq-2" value="AWS Cloud" style="points=[[0,0],[0.25,0],[0.5,0],[0.75,0],[1,0],[1,0.25],[1,0.5],[1,0.75],[1,1],[0.75,1],[0.5,1],[0.25,1],[0,1],[0,0.75],[0,0.5],[0,0.25]];outlineConnect=0;gradientColor=none;html=1;whiteSpace=wrap;fontSize=12;fontStyle=0;container=1;pointerEvents=0;collapsible=0;recursiveResize=0;shape=mxgraph.aws4.group;grIcon=mxgraph.aws4.group_aws_cloud_alt;strokeColor=#232F3E;fillColor=none;verticalAlign=top;align=left;spacingLeft=30;fontColor=#232F3E;dashed=0;" parent="fWKMCGJAan4TwiToc_Mq-1" vertex="1">
          <mxGeometry x="80" y="70" width="1160" height="530" as="geometry" />
        </mxCell>
        <mxCell id="fWKMCGJAan4TwiToc_Mq-3" value="Region" style="points=[[0,0],[0.25,0],[0.5,0],[0.75,0],[1,0],[1,0.25],[1,0.5],[1,0.75],[1,1],[0.75,1],[0.5,1],[0.25,1],[0,1],[0,0.75],[0,0.5],[0,0.25]];outlineConnect=0;gradientColor=none;html=1;whiteSpace=wrap;fontSize=12;fontStyle=0;container=1;pointerEvents=0;collapsible=0;recursiveResize=0;shape=mxgraph.aws4.group;grIcon=mxgraph.aws4.group_region;strokeColor=#147EBA;fillColor=none;verticalAlign=top;align=left;spacingLeft=30;fontColor=#147EBA;dashed=1;" parent="fWKMCGJAan4TwiToc_Mq-2" vertex="1">
          <mxGeometry x="30" y="40" width="1100" height="460" as="geometry" />
        </mxCell>
        <mxCell id="fWKMCGJAan4TwiToc_Mq-4" value="Provider Account" style="points=[[0,0],[0.25,0],[0.5,0],[0.75,0],[1,0],[1,0.25],[1,0.5],[1,0.75],[1,1],[0.75,1],[0.5,1],[0.25,1],[0,1],[0,0.75],[0,0.5],[0,0.25]];outlineConnect=0;gradientColor=none;html=1;whiteSpace=wrap;fontSize=12;fontStyle=0;container=1;pointerEvents=0;collapsible=0;recursiveResize=0;shape=mxgraph.aws4.group;grIcon=mxgraph.aws4.group_aws_cloud;strokeColor=#232F3E;fillColor=none;verticalAlign=top;align=left;spacingLeft=30;fontColor=#232F3E;dashed=0;" parent="fWKMCGJAan4TwiToc_Mq-3" vertex="1">
          <mxGeometry x="420" y="40" width="440" height="390" as="geometry" />
        </mxCell>
        <mxCell id="fWKMCGJAan4TwiToc_Mq-5" value="Provider VPC" style="points=[[0,0],[0.25,0],[0.5,0],[0.75,0],[1,0],[1,0.25],[1,0.5],[1,0.75],[1,1],[0.75,1],[0.5,1],[0.25,1],[0,1],[0,0.75],[0,0.5],[0,0.25]];outlineConnect=0;gradientColor=none;html=1;whiteSpace=wrap;fontSize=12;fontStyle=0;container=1;pointerEvents=0;collapsible=0;recursiveResize=0;shape=mxgraph.aws4.group;grIcon=mxgraph.aws4.group_vpc;strokeColor=#248814;fillColor=none;verticalAlign=top;align=left;spacingLeft=30;fontColor=#AAB7B8;dashed=0;" parent="fWKMCGJAan4TwiToc_Mq-4" vertex="1">
          <mxGeometry x="30" y="40" width="380" height="200" as="geometry" />
        </mxCell>
        <mxCell id="fTDK6XBK0r-kGKjasdQS-10" value="" style="edgeStyle=orthogonalEdgeStyle;rounded=0;orthogonalLoop=1;jettySize=auto;html=1;" edge="1" parent="fWKMCGJAan4TwiToc_Mq-5" source="fWKMCGJAan4TwiToc_Mq-6" target="fTDK6XBK0r-kGKjasdQS-9">
          <mxGeometry relative="1" as="geometry" />
        </mxCell>
        <mxCell id="fWKMCGJAan4TwiToc_Mq-6" value="Network&lt;br&gt;Load Balancer" style="sketch=0;outlineConnect=0;fontColor=#232F3E;gradientColor=none;fillColor=#4D27AA;strokeColor=none;dashed=0;verticalLabelPosition=bottom;verticalAlign=top;align=center;html=1;fontSize=12;fontStyle=0;aspect=fixed;pointerEvents=1;shape=mxgraph.aws4.network_load_balancer;" parent="fWKMCGJAan4TwiToc_Mq-5" vertex="1">
          <mxGeometry x="30" y="41" width="78" height="78" as="geometry" />
        </mxCell>
        <mxCell id="fTDK6XBK0r-kGKjasdQS-12" value="" style="edgeStyle=orthogonalEdgeStyle;rounded=0;orthogonalLoop=1;jettySize=auto;html=1;" edge="1" parent="fWKMCGJAan4TwiToc_Mq-5" source="fTDK6XBK0r-kGKjasdQS-9" target="fTDK6XBK0r-kGKjasdQS-11">
          <mxGeometry relative="1" as="geometry" />
        </mxCell>
        <mxCell id="fTDK6XBK0r-kGKjasdQS-9" value="Elastic Network&lt;br&gt;Interface" style="sketch=0;outlineConnect=0;fontColor=#232F3E;gradientColor=none;fillColor=#4D27AA;strokeColor=none;dashed=0;verticalLabelPosition=bottom;verticalAlign=top;align=center;html=1;fontSize=12;fontStyle=0;aspect=fixed;pointerEvents=1;shape=mxgraph.aws4.elastic_network_interface;" vertex="1" parent="fWKMCGJAan4TwiToc_Mq-5">
          <mxGeometry x="150" y="41" width="78" height="78" as="geometry" />
        </mxCell>
        <mxCell id="fTDK6XBK0r-kGKjasdQS-11" value="VPC Endpoint" style="sketch=0;outlineConnect=0;fontColor=#232F3E;gradientColor=none;fillColor=#4D27AA;strokeColor=none;dashed=0;verticalLabelPosition=bottom;verticalAlign=top;align=center;html=1;fontSize=12;fontStyle=0;aspect=fixed;pointerEvents=1;shape=mxgraph.aws4.endpoints;" vertex="1" parent="fWKMCGJAan4TwiToc_Mq-5">
          <mxGeometry x="270" y="41" width="78" height="78" as="geometry" />
        </mxCell>
        <mxCell id="m-L9xJ8eqJfQ3N3FTz0O-0" value="AWS Certificate Manager" style="sketch=0;points=[[0,0,0],[0.25,0,0],[0.5,0,0],[0.75,0,0],[1,0,0],[0,1,0],[0.25,1,0],[0.5,1,0],[0.75,1,0],[1,1,0],[0,0.25,0],[0,0.5,0],[0,0.75,0],[1,0.25,0],[1,0.5,0],[1,0.75,0]];outlineConnect=0;fontColor=#232F3E;gradientColor=#F54749;gradientDirection=north;fillColor=#C7131F;strokeColor=#ffffff;dashed=0;verticalLabelPosition=bottom;verticalAlign=top;align=center;html=1;fontSize=12;fontStyle=0;aspect=fixed;shape=mxgraph.aws4.resourceIcon;resIcon=mxgraph.aws4.certificate_manager_3;" vertex="1" parent="fWKMCGJAan4TwiToc_Mq-4">
          <mxGeometry x="60" y="270" width="78" height="78" as="geometry" />
        </mxCell>
        <mxCell id="fTDK6XBK0r-kGKjasdQS-0" value="" style="edgeStyle=orthogonalEdgeStyle;rounded=0;orthogonalLoop=1;jettySize=auto;html=1;" edge="1" parent="fWKMCGJAan4TwiToc_Mq-4" source="fWKMCGJAan4TwiToc_Mq-6" target="m-L9xJ8eqJfQ3N3FTz0O-0">
          <mxGeometry relative="1" as="geometry" />
        </mxCell>
        <mxCell id="fWKMCGJAan4TwiToc_Mq-9" value="Consumer Account" style="points=[[0,0],[0.25,0],[0.5,0],[0.75,0],[1,0],[1,0.25],[1,0.5],[1,0.75],[1,1],[0.75,1],[0.5,1],[0.25,1],[0,1],[0,0.75],[0,0.5],[0,0.25]];outlineConnect=0;gradientColor=none;html=1;whiteSpace=wrap;fontSize=12;fontStyle=0;container=1;pointerEvents=0;collapsible=0;recursiveResize=0;shape=mxgraph.aws4.group;grIcon=mxgraph.aws4.group_aws_cloud;strokeColor=#232F3E;fillColor=none;verticalAlign=top;align=left;spacingLeft=30;fontColor=#232F3E;dashed=0;" parent="fWKMCGJAan4TwiToc_Mq-3" vertex="1">
          <mxGeometry x="30" y="40" width="270" height="390" as="geometry" />
        </mxCell>
        <mxCell id="fWKMCGJAan4TwiToc_Mq-10" value="Consumer VPC" style="points=[[0,0],[0.25,0],[0.5,0],[0.75,0],[1,0],[1,0.25],[1,0.5],[1,0.75],[1,1],[0.75,1],[0.5,1],[0.25,1],[0,1],[0,0.75],[0,0.5],[0,0.25]];outlineConnect=0;gradientColor=none;html=1;whiteSpace=wrap;fontSize=12;fontStyle=0;container=1;pointerEvents=0;collapsible=0;recursiveResize=0;shape=mxgraph.aws4.group;grIcon=mxgraph.aws4.group_vpc;strokeColor=#248814;fillColor=none;verticalAlign=top;align=left;spacingLeft=30;fontColor=#AAB7B8;dashed=0;" parent="fWKMCGJAan4TwiToc_Mq-9" vertex="1">
          <mxGeometry x="30" y="40" width="210" height="200" as="geometry" />
        </mxCell>
        <mxCell id="fWKMCGJAan4TwiToc_Mq-12" value="Consumer" style="sketch=0;outlineConnect=0;fontColor=#232F3E;gradientColor=none;fillColor=#232F3D;strokeColor=none;dashed=0;verticalLabelPosition=bottom;verticalAlign=top;align=center;html=1;fontSize=12;fontStyle=0;aspect=fixed;pointerEvents=1;shape=mxgraph.aws4.traditional_server;" parent="fWKMCGJAan4TwiToc_Mq-10" vertex="1">
          <mxGeometry x="30" y="41" width="45" height="78" as="geometry" />
        </mxCell>
        <mxCell id="fWKMCGJAan4TwiToc_Mq-13" value="" style="edgeStyle=orthogonalEdgeStyle;rounded=0;orthogonalLoop=1;jettySize=auto;html=1;" parent="fWKMCGJAan4TwiToc_Mq-10" source="fWKMCGJAan4TwiToc_Mq-12" target="R3ZWcGkrao75QRhpkQNG-0" edge="1">
          <mxGeometry relative="1" as="geometry">
            <mxPoint x="110.0008863032067" y="80" as="targetPoint" />
          </mxGeometry>
        </mxCell>
        <mxCell id="R3ZWcGkrao75QRhpkQNG-0" value="AWS PrivateLink&lt;br&gt;Endpoint" style="sketch=0;outlineConnect=0;fontColor=#232F3E;gradientColor=none;fillColor=#4D27AA;strokeColor=none;dashed=0;verticalLabelPosition=bottom;verticalAlign=top;align=center;html=1;fontSize=12;fontStyle=0;aspect=fixed;pointerEvents=1;shape=mxgraph.aws4.endpoints;" vertex="1" parent="fWKMCGJAan4TwiToc_Mq-10">
          <mxGeometry x="110" y="41" width="78" height="78" as="geometry" />
        </mxCell>
        <mxCell id="fWKMCGJAan4TwiToc_Mq-14" value="AWS&lt;br&gt;PrivateLink" style="sketch=0;points=[[0,0,0],[0.25,0,0],[0.5,0,0],[0.75,0,0],[1,0,0],[0,1,0],[0.25,1,0],[0.5,1,0],[0.75,1,0],[1,1,0],[0,0.25,0],[0,0.5,0],[0,0.75,0],[1,0.25,0],[1,0.5,0],[1,0.75,0]];outlineConnect=0;fontColor=#232F3E;gradientColor=#945DF2;gradientDirection=north;fillColor=#5A30B5;strokeColor=#ffffff;dashed=0;verticalLabelPosition=bottom;verticalAlign=top;align=center;html=1;fontSize=12;fontStyle=0;aspect=fixed;shape=mxgraph.aws4.resourceIcon;resIcon=mxgraph.aws4.vpc_privatelink;" parent="fWKMCGJAan4TwiToc_Mq-3" vertex="1">
          <mxGeometry x="320" y="180" width="78" height="78" as="geometry" />
        </mxCell>
        <mxCell id="fWKMCGJAan4TwiToc_Mq-15" value="" style="edgeStyle=orthogonalEdgeStyle;rounded=0;orthogonalLoop=1;jettySize=auto;html=1;" parent="fWKMCGJAan4TwiToc_Mq-3" target="fWKMCGJAan4TwiToc_Mq-6" edge="1">
          <mxGeometry relative="1" as="geometry">
            <mxPoint x="328.0008863032067" y="160" as="targetPoint" />
            <mxPoint x="247.99911369679353" y="160" as="sourcePoint" />
          </mxGeometry>
        </mxCell>
        <mxCell id="fTDK6XBK0r-kGKjasdQS-8" value="Amazon API Gateway Service Account" style="points=[[0,0],[0.25,0],[0.5,0],[0.75,0],[1,0],[1,0.25],[1,0.5],[1,0.75],[1,1],[0.75,1],[0.5,1],[0.25,1],[0,1],[0,0.75],[0,0.5],[0,0.25]];outlineConnect=0;gradientColor=none;html=1;whiteSpace=wrap;fontSize=12;fontStyle=0;container=1;pointerEvents=0;collapsible=0;recursiveResize=0;shape=mxgraph.aws4.group;grIcon=mxgraph.aws4.group_aws_cloud;strokeColor=#232F3E;fillColor=none;verticalAlign=top;align=left;spacingLeft=30;fontColor=#232F3E;dashed=0;" vertex="1" parent="fWKMCGJAan4TwiToc_Mq-3">
          <mxGeometry x="890" y="40" width="180" height="390" as="geometry" />
        </mxCell>
        <mxCell id="axlqStf4VWQ-uNp_sCPW-0" value="Amazon API Gateway&lt;br&gt;(private)" style="sketch=0;points=[[0,0,0],[0.25,0,0],[0.5,0,0],[0.75,0,0],[1,0,0],[0,1,0],[0.25,1,0],[0.5,1,0],[0.75,1,0],[1,1,0],[0,0.25,0],[0,0.5,0],[0,0.75,0],[1,0.25,0],[1,0.5,0],[1,0.75,0]];outlineConnect=0;fontColor=#232F3E;gradientColor=#FF4F8B;gradientDirection=north;fillColor=#BC1356;strokeColor=#ffffff;dashed=0;verticalLabelPosition=bottom;verticalAlign=top;align=center;html=1;fontSize=12;fontStyle=0;aspect=fixed;shape=mxgraph.aws4.resourceIcon;resIcon=mxgraph.aws4.api_gateway;" parent="fTDK6XBK0r-kGKjasdQS-8" vertex="1">
          <mxGeometry x="50" y="81" width="78" height="78" as="geometry" />
        </mxCell>
        <mxCell id="fTDK6XBK0r-kGKjasdQS-14" value="" style="edgeStyle=orthogonalEdgeStyle;rounded=0;orthogonalLoop=1;jettySize=auto;html=1;" edge="1" parent="fWKMCGJAan4TwiToc_Mq-3" source="fTDK6XBK0r-kGKjasdQS-11" target="axlqStf4VWQ-uNp_sCPW-0">
          <mxGeometry relative="1" as="geometry">
            <mxPoint x="878" y="160" as="targetPoint" />
          </mxGeometry>
        </mxCell>
      </root>
    </mxGraphModel>
  </diagram>
</mxfile>
